<svg id="visual" viewBox="0 0 960 100" width="960" height="100" xmlns="http://www.w3.org/2000/svg" xmlns:xlink="http://www.w3.org/1999/xlink" version="1.1"><rect x="0" y="0" width="960" height="100" fill="#6093bf"></rect><g fill="#f2c12e"><circle r="11" cx="482" cy="33"></circle><circle r="2" cx="558" cy="56"></circle><circle r="5" cx="169" cy="25"></circle><circle r="8" cx="691" cy="68"></circle><circle r="5" cx="170" cy="74"></circle><circle r="4" cx="928" cy="67"></circle><circle r="5" cx="110" cy="65"></circle><circle r="5" cx="19" cy="26"></circle><circle r="9" cx="23" cy="63"></circle><circle r="5" cx="798" cy="45"></circle><circle r="7" cx="452" cy="44"></circle><circle r="6" cx="60" cy="90"></circle><circle r="6" cx="278" cy="13"></circle><circle r="4" cx="297" cy="53"></circle><circle r="6" cx="131" cy="34"></circle><circle r="9" cx="763" cy="11"></circle><circle r="6" cx="159" cy="50"></circle><circle r="3" cx="434" cy="79"></circle><circle r="7" cx="322" cy="37"></circle><circle r="9" cx="683" cy="42"></circle><circle r="4" cx="783" cy="28"></circle><circle r="1" cx="354" cy="79"></circle><circle r="9" cx="404" cy="52"></circle><circle r="8" cx="897" cy="41"></circle><circle r="4" cx="745" cy="63"></circle><circle r="5" cx="236" cy="36"></circle><circle r="5" cx="729" cy="39"></circle><circle r="2" cx="791" cy="87"></circle><circle r="1" cx="589" cy="73"></circle><circle r="9" cx="553" cy="32"></circle><circle r="9" cx="270" cy="88"></circle><circle r="3" cx="857" cy="81"></circle><circle r="5" cx="707" cy="21"></circle><circle r="1" cx="36" cy="43"></circle><circle r="4" cx="835" cy="71"></circle><circle r="1" cx="71" cy="18"></circle><circle r="1" cx="366" cy="48"></circle><circle r="9" cx="465" cy="90"></circle><circle r="5" cx="322" cy="60"></circle><circle r="1" cx="499" cy="50"></circle><circle r="9" cx="878" cy="24"></circle><circle r="5" cx="418" cy="20"></circle><circle r="4" cx="685" cy="88"></circle><circle r="2" cx="882" cy="76"></circle><circle r="6" cx="74" cy="43"></circle><circle r="5" cx="903" cy="87"></circle><circle r="1" cx="407" cy="85"></circle><circle r="4" cx="749" cy="31"></circle><circle r="2" cx="97" cy="34"></circle><circle r="8" cx="921" cy="36"></circle><circle r="9" cx="814" cy="10"></circle><circle r="4" cx="211" cy="47"></circle><circle r="6" cx="942" cy="26"></circle><circle r="7" cx="512" cy="31"></circle><circle r="1" cx="812" cy="76"></circle><circle r="1" cx="645" cy="83"></circle><circle r="4" cx="717" cy="66"></circle><circle r="5" cx="522" cy="72"></circle><circle r="3" cx="609" cy="12"></circle><circle r="5" cx="580" cy="53"></circle><circle r="6" cx="628" cy="50"></circle><circle r="1" cx="601" cy="33"></circle><circle r="7" cx="97" cy="13"></circle><circle r="1" cx="731" cy="90"></circle><circle r="8" cx="246" cy="80"></circle><circle r="5" cx="385" cy="65"></circle><circle r="2" cx="263" cy="62"></circle><circle r="5" cx="703" cy="47"></circle><circle r="5" cx="293" cy="88"></circle><circle r="1" cx="847" cy="48"></circle><circle r="5" cx="47" cy="25"></circle><circle r="7" cx="573" cy="13"></circle><circle r="1" cx="632" cy="11"></circle><circle r="9" cx="139" cy="13"></circle><circle r="2" cx="89" cy="83"></circle><circle r="4" cx="198" cy="11"></circle><circle r="6" cx="349" cy="27"></circle><circle r="9" cx="308" cy="15"></circle><circle r="5" cx="347" cy="56"></circle><circle r="6" cx="375" cy="86"></circle><circle r="3" cx="836" cy="22"></circle><circle r="2" cx="555" cy="83"></circle><circle r="6" cx="219" cy="70"></circle><circle r="4" cx="658" cy="14"></circle><circle r="3" cx="658" cy="49"></circle><circle r="3" cx="138" cy="79"></circle><circle r="8" cx="919" cy="13"></circle><circle r="4" cx="617" cy="77"></circle><circle r="6" cx="113" cy="86"></circle><circle r="7" cx="666" cy="69"></circle><circle r="4" cx="484" cy="68"></circle><circle r="1" cx="824" cy="51"></circle><circle r="4" cx="909" cy="58"></circle><circle r="3" cx="949" cy="55"></circle><circle r="2" cx="248" cy="14"></circle><circle r="6" cx="383" cy="10"></circle><circle r="3" cx="762" cy="83"></circle><circle r="3" cx="644" cy="30"></circle><circle r="8" cx="535" cy="56"></circle><circle r="9" cx="62" cy="66"></circle><circle r="2" cx="854" cy="10"></circle><circle r="2" cx="196" cy="79"></circle><circle r="7" cx="31" cy="83"></circle><circle r="4" cx="512" cy="11"></circle><circle r="4" cx="314" cy="88"></circle><circle r="6" cx="466" cy="19"></circle><circle r="5" cx="264" cy="32"></circle><circle r="5" cx="437" cy="11"></circle><circle r="6" cx="879" cy="56"></circle><circle r="5" cx="331" cy="11"></circle><circle r="7" cx="504" cy="82"></circle><circle r="6" cx="220" cy="20"></circle><circle r="7" cx="293" cy="33"></circle><circle r="6" cx="192" cy="56"></circle><circle r="7" cx="432" cy="40"></circle><circle r="5" cx="773" cy="50"></circle><circle r="5" cx="950" cy="81"></circle><circle r="3" cx="533" cy="20"></circle><circle r="6" cx="393" cy="34"></circle><circle r="7" cx="491" cy="13"></circle><circle r="5" cx="465" cy="60"></circle><circle r="1" cx="139" cy="54"></circle><circle r="9" cx="192" cy="32"></circle><circle r="4" cx="89" cy="61"></circle><circle r="8" cx="730" cy="19"></circle><circle r="9" cx="370" cy="27"></circle><circle r="5" cx="334" cy="85"></circle><circle r="6" cx="682" cy="15"></circle><circle r="6" cx="607" cy="54"></circle><circle r="6" cx="11" cy="46"></circle><circle r="1" cx="930" cy="89"></circle><circle r="5" cx="237" cy="60"></circle><circle r="2" cx="534" cy="90"></circle><circle r="4" cx="118" cy="18"></circle><circle r="5" cx="814" cy="32"></circle><circle r="1" cx="899" cy="12"></circle><circle r="4" cx="425" cy="59"></circle><circle r="6" cx="707" cy="87"></circle><circle r="4" cx="858" cy="31"></circle><circle r="2" cx="786" cy="66"></circle><circle r="1" cx="576" cy="89"></circle><circle r="6" cx="10" cy="87"></circle></g></svg>