<svg id="visual" viewBox="0 0 960 100" width="960" height="100" xmlns="http://www.w3.org/2000/svg" xmlns:xlink="http://www.w3.org/1999/xlink" version="1.1"><rect x="0" y="0" width="960" height="100" fill="#D94032"></rect><path d="M0 83L11.5 80.7C23 78.3 46 73.7 68.8 74.5C91.7 75.3 114.3 81.7 137.2 82C160 82.3 183 76.7 205.8 73.7C228.7 70.7 251.3 70.3 274.2 73.3C297 76.3 320 82.7 342.8 85.5C365.7 88.3 388.3 87.7 411.2 86.2C434 84.7 457 82.3 480 82.2C503 82 526 84 548.8 84.5C571.7 85 594.3 84 617.2 81.5C640 79 663 75 685.8 75.5C708.7 76 731.3 81 754.2 82.2C777 83.3 800 80.7 822.8 80.5C845.7 80.3 868.3 82.7 891.2 83.8C914 85 937 85 948.5 85L960 85L960 0L948.5 0C937 0 914 0 891.2 0C868.3 0 845.7 0 822.8 0C800 0 777 0 754.2 0C731.3 0 708.7 0 685.8 0C663 0 640 0 617.2 0C594.3 0 571.7 0 548.8 0C526 0 503 0 480 0C457 0 434 0 411.2 0C388.3 0 365.7 0 342.8 0C320 0 297 0 274.2 0C251.3 0 228.7 0 205.8 0C183 0 160 0 137.2 0C114.3 0 91.7 0 68.8 0C46 0 23 0 11.5 0L0 0Z" fill="#d94032"></path><path d="M0 63L11.5 63.7C23 64.3 46 65.7 68.8 67.8C91.7 70 114.3 73 137.2 71.8C160 70.7 183 65.3 205.8 65.2C228.7 65 251.3 70 274.2 72.7C297 75.3 320 75.7 342.8 76.2C365.7 76.7 388.3 77.3 411.2 76.3C434 75.3 457 72.7 480 72C503 71.3 526 72.7 548.8 71.3C571.7 70 594.3 66 617.2 65.2C640 64.3 663 66.7 685.8 65.8C708.7 65 731.3 61 754.2 62.7C777 64.3 800 71.7 822.8 74.2C845.7 76.7 868.3 74.3 891.2 72C914 69.7 937 67.3 948.5 66.2L960 65L960 0L948.5 0C937 0 914 0 891.2 0C868.3 0 845.7 0 822.8 0C800 0 777 0 754.2 0C731.3 0 708.7 0 685.8 0C663 0 640 0 617.2 0C594.3 0 571.7 0 548.8 0C526 0 503 0 480 0C457 0 434 0 411.2 0C388.3 0 365.7 0 342.8 0C320 0 297 0 274.2 0C251.3 0 228.7 0 205.8 0C183 0 160 0 137.2 0C114.3 0 91.7 0 68.8 0C46 0 23 0 11.5 0L0 0Z" fill="#e65d2a"></path><path d="M0 47L11.5 49C23 51 46 55 68.8 54.8C91.7 54.7 114.3 50.3 137.2 50.7C160 51 183 56 205.8 59.5C228.7 63 251.3 65 274.2 63.2C297 61.3 320 55.7 342.8 53.3C365.7 51 388.3 52 411.2 53.7C434 55.3 457 57.7 480 58C503 58.3 526 56.7 548.8 55C571.7 53.3 594.3 51.7 617.2 52.7C640 53.7 663 57.3 685.8 57.3C708.7 57.3 731.3 53.7 754.2 53.7C777 53.7 800 57.3 822.8 57.7C845.7 58 868.3 55 891.2 52.8C914 50.7 937 49.3 948.5 48.7L960 48L960 0L948.5 0C937 0 914 0 891.2 0C868.3 0 845.7 0 822.8 0C800 0 777 0 754.2 0C731.3 0 708.7 0 685.8 0C663 0 640 0 617.2 0C594.3 0 571.7 0 548.8 0C526 0 503 0 480 0C457 0 434 0 411.2 0C388.3 0 365.7 0 342.8 0C320 0 297 0 274.2 0C251.3 0 228.7 0 205.8 0C183 0 160 0 137.2 0C114.3 0 91.7 0 68.8 0C46 0 23 0 11.5 0L0 0Z" fill="#ef7921"></path><path d="M0 54L11.5 51.7C23 49.3 46 44.7 68.8 42.3C91.7 40 114.3 40 137.2 42.3C160 44.7 183 49.3 205.8 50.3C228.7 51.3 251.3 48.7 274.2 47.2C297 45.7 320 45.3 342.8 43.8C365.7 42.3 388.3 39.7 411.2 38.8C434 38 457 39 480 40.7C503 42.3 526 44.7 548.8 45.3C571.7 46 594.3 45 617.2 44C640 43 663 42 685.8 41.3C708.7 40.7 731.3 40.3 754.2 42.3C777 44.3 800 48.7 822.8 48.2C845.7 47.7 868.3 42.3 891.2 41.3C914 40.3 937 43.7 948.5 45.3L960 47L960 0L948.5 0C937 0 914 0 891.2 0C868.3 0 845.7 0 822.8 0C800 0 777 0 754.2 0C731.3 0 708.7 0 685.8 0C663 0 640 0 617.2 0C594.3 0 571.7 0 548.8 0C526 0 503 0 480 0C457 0 434 0 411.2 0C388.3 0 365.7 0 342.8 0C320 0 297 0 274.2 0C251.3 0 228.7 0 205.8 0C183 0 160 0 137.2 0C114.3 0 91.7 0 68.8 0C46 0 23 0 11.5 0L0 0Z" fill="#f59419"></path><path d="M0 39L11.5 36.7C23 34.3 46 29.7 68.8 27.7C91.7 25.7 114.3 26.3 137.2 26.7C160 27 183 27 205.8 28C228.7 29 251.3 31 274.2 33C297 35 320 37 342.8 36.5C365.7 36 388.3 33 411.2 33.2C434 33.3 457 36.7 480 37.3C503 38 526 36 548.8 36.3C571.7 36.7 594.3 39.3 617.2 39.8C640 40.3 663 38.7 685.8 37.7C708.7 36.7 731.3 36.3 754.2 35.8C777 35.3 800 34.7 822.8 34.8C845.7 35 868.3 36 891.2 34.7C914 33.3 937 29.7 948.5 27.8L960 26L960 0L948.5 0C937 0 914 0 891.2 0C868.3 0 845.7 0 822.8 0C800 0 777 0 754.2 0C731.3 0 708.7 0 685.8 0C663 0 640 0 617.2 0C594.3 0 571.7 0 548.8 0C526 0 503 0 480 0C457 0 434 0 411.2 0C388.3 0 365.7 0 342.8 0C320 0 297 0 274.2 0C251.3 0 228.7 0 205.8 0C183 0 160 0 137.2 0C114.3 0 91.7 0 68.8 0C46 0 23 0 11.5 0L0 0Z" fill="#f8af16"></path><path d="M0 21L11.5 21.2C23 21.3 46 21.7 68.8 21.8C91.7 22 114.3 22 137.2 20.8C160 19.7 183 17.3 205.8 17.5C228.7 17.7 251.3 20.3 274.2 20.7C297 21 320 19 342.8 17.8C365.7 16.7 388.3 16.3 411.2 16.2C434 16 457 16 480 17.5C503 19 526 22 548.8 24.3C571.7 26.7 594.3 28.3 617.2 27.8C640 27.3 663 24.7 685.8 22.2C708.7 19.7 731.3 17.3 754.2 18.5C777 19.7 800 24.3 822.8 25.2C845.7 26 868.3 23 891.2 21.2C914 19.3 937 18.7 948.5 18.3L960 18L960 0L948.5 0C937 0 914 0 891.2 0C868.3 0 845.7 0 822.8 0C800 0 777 0 754.2 0C731.3 0 708.7 0 685.8 0C663 0 640 0 617.2 0C594.3 0 571.7 0 548.8 0C526 0 503 0 480 0C457 0 434 0 411.2 0C388.3 0 365.7 0 342.8 0C320 0 297 0 274.2 0C251.3 0 228.7 0 205.8 0C183 0 160 0 137.2 0C114.3 0 91.7 0 68.8 0C46 0 23 0 11.5 0L0 0Z" fill="#f7cb20"></path><path d="M0 14L11.5 14.7C23 15.3 46 16.7 68.8 17.5C91.7 18.3 114.3 18.7 137.2 18.2C160 17.7 183 16.3 205.8 15.7C228.7 15 251.3 15 274.2 14.3C297 13.7 320 12.3 342.8 10.8C365.7 9.3 388.3 7.7 411.2 7.7C434 7.7 457 9.3 480 9.2C503 9 526 7 548.8 8C571.7 9 594.3 13 617.2 13.8C640 14.7 663 12.3 685.8 10.2C708.7 8 731.3 6 754.2 5.2C777 4.3 800 4.7 822.8 7C845.7 9.3 868.3 13.7 891.2 14.3C914 15 937 12 948.5 10.5L960 9L960 0L948.5 0C937 0 914 0 891.2 0C868.3 0 845.7 0 822.8 0C800 0 777 0 754.2 0C731.3 0 708.7 0 685.8 0C663 0 640 0 617.2 0C594.3 0 571.7 0 548.8 0C526 0 503 0 480 0C457 0 434 0 411.2 0C388.3 0 365.7 0 342.8 0C320 0 297 0 274.2 0C251.3 0 228.7 0 205.8 0C183 0 160 0 137.2 0C114.3 0 91.7 0 68.8 0C46 0 23 0 11.5 0L0 0Z" fill="#f2e635"></path></svg>