<svg id="visual" viewBox="0 0 960 200" width="960" height="200" xmlns="http://www.w3.org/2000/svg" xmlns:xlink="http://www.w3.org/1999/xlink" version="1.1"><path d="M0 31L8.8 33.3C17.7 35.7 35.3 40.3 53.2 41.3C71 42.3 89 39.7 106.8 39.3C124.7 39 142.3 41 160 41.7C177.7 42.3 195.3 41.7 213.2 37.3C231 33 249 25 266.8 21.3C284.7 17.7 302.3 18.3 320 22C337.7 25.7 355.3 32.3 373.2 33.3C391 34.3 409 29.7 426.8 25C444.7 20.3 462.3 15.7 480 13C497.7 10.3 515.3 9.7 533.2 10.3C551 11 569 13 586.8 17.3C604.7 21.7 622.3 28.3 640 31.3C657.7 34.3 675.3 33.7 693.2 35C711 36.3 729 39.7 746.8 35.7C764.7 31.7 782.3 20.3 800 19C817.7 17.7 835.3 26.3 853.2 28C871 29.7 889 24.3 906.8 20C924.7 15.7 942.3 12.3 951.2 10.7L960 9L960 0L951.2 0C942.3 0 924.7 0 906.8 0C889 0 871 0 853.2 0C835.3 0 817.7 0 800 0C782.3 0 764.7 0 746.8 0C729 0 711 0 693.2 0C675.3 0 657.7 0 640 0C622.3 0 604.7 0 586.8 0C569 0 551 0 533.2 0C515.3 0 497.7 0 480 0C462.3 0 444.7 0 426.8 0C409 0 391 0 373.2 0C355.3 0 337.7 0 320 0C302.3 0 284.7 0 266.8 0C249 0 231 0 213.2 0C195.3 0 177.7 0 160 0C142.3 0 124.7 0 106.8 0C89 0 71 0 53.2 0C35.3 0 17.7 0 8.8 0L0 0Z" fill="#f2b544"></path><path d="M0 51L8.8 56C17.7 61 35.3 71 53.2 73.3C71 75.7 89 70.3 106.8 68.7C124.7 67 142.3 69 160 72.3C177.7 75.7 195.3 80.3 213.2 79.7C231 79 249 73 266.8 70C284.7 67 302.3 67 320 66.7C337.7 66.3 355.3 65.7 373.2 62C391 58.3 409 51.7 426.8 51.7C444.7 51.7 462.3 58.3 480 59.7C497.7 61 515.3 57 533.2 52.7C551 48.3 569 43.7 586.8 44.3C604.7 45 622.3 51 640 61.7C657.7 72.3 675.3 87.7 693.2 89C711 90.3 729 77.7 746.8 69C764.7 60.3 782.3 55.7 800 63C817.7 70.3 835.3 89.7 853.2 90.7C871 91.7 889 74.3 906.8 70.3C924.7 66.3 942.3 75.7 951.2 80.3L960 85L960 7L951.2 8.7C942.3 10.3 924.7 13.7 906.8 18C889 22.3 871 27.7 853.2 26C835.3 24.3 817.7 15.7 800 17C782.3 18.3 764.7 29.7 746.8 33.7C729 37.7 711 34.3 693.2 33C675.3 31.7 657.7 32.3 640 29.3C622.3 26.3 604.7 19.7 586.8 15.3C569 11 551 9 533.2 8.3C515.3 7.7 497.7 8.3 480 11C462.3 13.7 444.7 18.3 426.8 23C409 27.7 391 32.3 373.2 31.3C355.3 30.3 337.7 23.7 320 20C302.3 16.3 284.7 15.7 266.8 19.3C249 23 231 31 213.2 35.3C195.3 39.7 177.7 40.3 160 39.7C142.3 39 124.7 37 106.8 37.3C89 37.7 71 40.3 53.2 39.3C35.3 38.3 17.7 33.7 8.8 31.3L0 29Z" fill="#d6c14b"></path><path d="M0 67L8.8 73.7C17.7 80.3 35.3 93.7 53.2 94.7C71 95.7 89 84.3 106.8 81C124.7 77.7 142.3 82.3 160 87.7C177.7 93 195.3 99 213.2 101.7C231 104.3 249 103.7 266.8 106.7C284.7 109.7 302.3 116.3 320 117.3C337.7 118.3 355.3 113.7 373.2 104.7C391 95.7 409 82.3 426.8 85.7C444.7 89 462.3 109 480 114.7C497.7 120.3 515.3 111.7 533.2 107C551 102.3 569 101.7 586.8 100.7C604.7 99.7 622.3 98.3 640 104C657.7 109.7 675.3 122.3 693.2 121C711 119.7 729 104.3 746.8 95.3C764.7 86.3 782.3 83.7 800 89.3C817.7 95 835.3 109 853.2 113.7C871 118.3 889 113.7 906.8 114.3C924.7 115 942.3 121 951.2 124L960 127L960 83L951.2 78.3C942.3 73.7 924.7 64.3 906.8 68.3C889 72.3 871 89.7 853.2 88.7C835.3 87.7 817.7 68.3 800 61C782.3 53.7 764.7 58.3 746.8 67C729 75.7 711 88.3 693.2 87C675.3 85.7 657.7 70.3 640 59.7C622.3 49 604.7 43 586.8 42.3C569 41.7 551 46.3 533.2 50.7C515.3 55 497.7 59 480 57.7C462.3 56.3 444.7 49.7 426.8 49.7C409 49.7 391 56.3 373.2 60C355.3 63.7 337.7 64.3 320 64.7C302.3 65 284.7 65 266.8 68C249 71 231 77 213.2 77.7C195.3 78.3 177.7 73.7 160 70.3C142.3 67 124.7 65 106.8 66.7C89 68.3 71 73.7 53.2 71.3C35.3 69 17.7 59 8.8 54L0 49Z" fill="#bbca5d"></path><path d="M0 83L8.8 88C17.7 93 35.3 103 53.2 105C71 107 89 101 106.8 100C124.7 99 142.3 103 160 107.3C177.7 111.7 195.3 116.3 213.2 118.7C231 121 249 121 266.8 123C284.7 125 302.3 129 320 130.7C337.7 132.3 355.3 131.7 373.2 123.3C391 115 409 99 426.8 100.7C444.7 102.3 462.3 121.7 480 127C497.7 132.3 515.3 123.7 533.2 120.7C551 117.7 569 120.3 586.8 121.7C604.7 123 622.3 123 640 129.3C657.7 135.7 675.3 148.3 693.2 144.3C711 140.3 729 119.7 746.8 110.7C764.7 101.7 782.3 104.3 800 113C817.7 121.7 835.3 136.3 853.2 139.7C871 143 889 135 906.8 132C924.7 129 942.3 131 951.2 132L960 133L960 125L951.2 122C942.3 119 924.7 113 906.8 112.3C889 111.7 871 116.3 853.2 111.7C835.3 107 817.7 93 800 87.3C782.3 81.7 764.7 84.3 746.8 93.3C729 102.3 711 117.7 693.2 119C675.3 120.3 657.7 107.7 640 102C622.3 96.3 604.7 97.7 586.8 98.7C569 99.7 551 100.3 533.2 105C515.3 109.7 497.7 118.3 480 112.7C462.3 107 444.7 87 426.8 83.7C409 80.3 391 93.7 373.2 102.7C355.3 111.7 337.7 116.3 320 115.3C302.3 114.3 284.7 107.7 266.8 104.7C249 101.7 231 102.3 213.2 99.7C195.3 97 177.7 91 160 85.7C142.3 80.3 124.7 75.7 106.8 79C89 82.3 71 93.7 53.2 92.7C35.3 91.7 17.7 78.3 8.8 71.7L0 65Z" fill="#a0d174"></path><path d="M0 101L8.8 104.3C17.7 107.7 35.3 114.3 53.2 116C71 117.7 89 114.3 106.8 114C124.7 113.7 142.3 116.3 160 123.3C177.7 130.3 195.3 141.7 213.2 145.7C231 149.7 249 146.3 266.8 148.3C284.7 150.3 302.3 157.7 320 160.7C337.7 163.7 355.3 162.3 373.2 154.7C391 147 409 133 426.8 131.3C444.7 129.7 462.3 140.3 480 141.7C497.7 143 515.3 135 533.2 131.3C551 127.7 569 128.3 586.8 132.3C604.7 136.3 622.3 143.7 640 153C657.7 162.3 675.3 173.7 693.2 170.3C711 167 729 149 746.8 139C764.7 129 782.3 127 800 135C817.7 143 835.3 161 853.2 166.7C871 172.3 889 165.7 906.8 161.3C924.7 157 942.3 155 951.2 154L960 153L960 131L951.2 130C942.3 129 924.7 127 906.8 130C889 133 871 141 853.2 137.7C835.3 134.3 817.7 119.7 800 111C782.3 102.3 764.7 99.7 746.8 108.7C729 117.7 711 138.3 693.2 142.3C675.3 146.3 657.7 133.7 640 127.3C622.3 121 604.7 121 586.8 119.7C569 118.3 551 115.7 533.2 118.7C515.3 121.7 497.7 130.3 480 125C462.3 119.7 444.7 100.3 426.8 98.7C409 97 391 113 373.2 121.3C355.3 129.7 337.7 130.3 320 128.7C302.3 127 284.7 123 266.8 121C249 119 231 119 213.2 116.7C195.3 114.3 177.7 109.7 160 105.3C142.3 101 124.7 97 106.8 98C89 99 71 105 53.2 103C35.3 101 17.7 91 8.8 86L0 81Z" fill="#88d68f"></path><path d="M0 201L8.8 201C17.7 201 35.3 201 53.2 201C71 201 89 201 106.8 201C124.7 201 142.3 201 160 201C177.7 201 195.3 201 213.2 201C231 201 249 201 266.8 201C284.7 201 302.3 201 320 201C337.7 201 355.3 201 373.2 201C391 201 409 201 426.8 201C444.7 201 462.3 201 480 201C497.7 201 515.3 201 533.2 201C551 201 569 201 586.8 201C604.7 201 622.3 201 640 201C657.7 201 675.3 201 693.2 201C711 201 729 201 746.8 201C764.7 201 782.3 201 800 201C817.7 201 835.3 201 853.2 201C871 201 889 201 906.8 201C924.7 201 942.3 201 951.2 201L960 201L960 151L951.2 152C942.3 153 924.7 155 906.8 159.3C889 163.7 871 170.3 853.2 164.7C835.3 159 817.7 141 800 133C782.3 125 764.7 127 746.8 137C729 147 711 165 693.2 168.3C675.3 171.7 657.7 160.3 640 151C622.3 141.7 604.7 134.3 586.8 130.3C569 126.3 551 125.7 533.2 129.3C515.3 133 497.7 141 480 139.7C462.3 138.3 444.7 127.7 426.8 129.3C409 131 391 145 373.2 152.7C355.3 160.3 337.7 161.7 320 158.7C302.3 155.7 284.7 148.3 266.8 146.3C249 144.3 231 147.7 213.2 143.7C195.3 139.7 177.7 128.3 160 121.3C142.3 114.3 124.7 111.7 106.8 112C89 112.3 71 115.7 53.2 114C35.3 112.3 17.7 105.7 8.8 102.3L0 99Z" fill="#73d9a9"></path></svg>